<COLLADA xmlns="http://www.collada.org/2005/11/COLLADASchema" version="1.4.1">
  <asset>
    <contributor/>
    <created>2026-04-24T20:23:25.746832</created>
    <modified>2026-04-24T20:23:25.746832</modified>
    <unit name="meter" meter="1.0"/>
    <up_axis>Z_UP</up_axis>
  </asset>
  <library_effects>
    <effect id="effect_Body" name="effect_Body">
      <profile_COMMON>
        <technique sid="common">
          <phong>
            <emission>
              <color>0.0 0.0 0.0 1.0</color>
            </emission>
            <ambient>
              <color>0.0 0.0 0.0 1.0</color>
            </ambient>
            <diffuse>
              <color>0.4470588266849518 0.4745098054409027 0.501960813999176 1.0</color>
            </diffuse>
            <specular>
              <color>1 1 1 1.0</color>
            </specular>
            <shininess>
              <float>0.0</float>
            </shininess>
            <reflective>
              <color>0.0 0.0 0.0 1.0</color>
            </reflective>
            <reflectivity>
              <float>0.0</float>
            </reflectivity>
            <transparent>
              <color>0.0 0.0 0.0 1.0</color>
            </transparent>
            <transparency>
              <float>1.0</float>
            </transparency>
          </phong>
        </technique>
        <extra>
          <technique profile="GOOGLEEARTH">
            <double_sided>0</double_sided>
          </technique>
        </extra>
      </profile_COMMON>
    </effect>
  </library_effects>
  <library_geometries>
    <geometry id="geometry0" name="Body">
      <mesh>
        <source id="cubeverts-array0">
          <float_array count="780" id="cubeverts-array0-array">0.0025 0 0 0.002496892 0.0001246147 0 0.0025 0 0.1 0.002496892 0.0001246147 0.1 0.002487577 0.0002489196 0 0.002487577 0.0002489196 0.1 0.002472077 0.0003726057 0 0.002472077 0.0003726057 0.1 0.002450431 0.0004953654 0.1 0.002450431 0.0004953654 0 0.002422693 0.0006168935 0 0.002422693 0.0006168935 0.1 0.002388932 0.0007368879 0 0.002388932 0.0007368879 0.1 0.002349231 0.0008550504 0.1 0.002349231 0.0008550504 0 0.00230369 0.000971087 0.1 0.00230369 0.000971087 0 0.002252422 0.001084709 0 0.002252422 0.001084709 0.1 0.002195554 0.001195635 0 0.002195554 0.001195635 0.1 0.002133227 0.001303588 0 0.002133227 0.001303588 0.1 0.002065597 0.0014083 0 0.002065597 0.0014083 0.1 0.001992831 0.001509511 0 0.001992831 0.001509511 0.1 0.001915111 0.001606969 0 0.001915111 0.001606969 0.1 0.00183263 0.001700432 0 0.00183263 0.001700432 0.1 0.001745592 0.001789667 0 0.001745592 0.001789667 0.1 0.001654215 0.001874453 0 0.001654215 0.001874453 0.1 0.001558725 0.001954579 0 0.001558725 0.001954579 0.1 0.001459359 0.002029845 0.1 0.001459359 0.002029845 0 0.001356366 0.002100065 0.1 0.001356366 0.002100065 0 0.00125 0.002165064 0 0.00125 0.002165064 0.1 0.001140527 0.002224679 0.1 0.001140527 0.002224679 0 0.001028218 0.002278765 0 0.001028218 0.002278765 0.1 0.0009133525 0.002327184 0 0.0009133525 0.002327184 0.1 0.0007962166 0.002369818 0 0.0007962166 0.002369818 0.1 0.0006771012 0.002406561 0 0.0006771012 0.002406561 0.1 0.0005563023 0.00243732 0.1 0.0005563023 0.00243732 0 0.0004341204 0.002462019 0.1 0.0004341204 0.002462019 0 0.0003108593 0.002480598 0 0.0003108593 0.002480598 0.1 0.0001868252 0.00249301 0 0.0001868252 0.00249301 0.1 6.232673e-05 0.002499223 0 6.232673e-05 0.002499223 0.1 -6.232673e-05 0.002499223 0 -6.232673e-05 0.002499223 0.1 -0.0001868252 0.00249301 0 -0.0001868252 0.00249301 0.1 -0.0003108593 0.002480598 0 -0.0003108593 0.002480598 0.1 -0.0004341204 0.002462019 0.1 -0.0004341204 0.002462019 0 -0.0005563023 0.00243732 0 -0.0005563023 0.00243732 0.1 -0.0006771012 0.002406561 0.1 -0.0006771012 0.002406561 0 -0.0007962166 0.002369818 0.1 -0.0007962166 0.002369818 0 -0.0009133525 0.002327184 0 -0.0009133525 0.002327184 0.1 -0.001028218 0.002278765 0 -0.001028218 0.002278765 0.1 -0.001140527 0.002224679 0 -0.001140527 0.002224679 0.1 -0.00125 0.002165064 0 -0.00125 0.002165064 0.1 -0.001356366 0.002100065 0 -0.001356366 0.002100065 0.1 -0.001459359 0.002029845 0 -0.001459359 0.002029845 0.1 -0.001558725 0.001954579 0 -0.001558725 0.001954579 0.1 -0.001654215 0.001874453 0 -0.001654215 0.001874453 0.1 -0.001745592 0.001789667 0 -0.001745592 0.001789667 0.1 -0.00183263 0.001700432 0.1 -0.00183263 0.001700432 0 -0.001915111 0.001606969 0 -0.001915111 0.001606969 0.1 -0.001992831 0.001509511 0.1 -0.001992831 0.001509511 0 -0.002065597 0.0014083 0 -0.002065597 0.0014083 0.1 -0.002133227 0.001303588 0 -0.002133227 0.001303588 0.1 -0.002195554 0.001195635 0 -0.002195554 0.001195635 0.1 -0.002252422 0.001084709 0 -0.002252422 0.001084709 0.1 -0.00230369 0.000971087 0.1 -0.00230369 0.000971087 0 -0.002349231 0.0008550504 0 -0.002349231 0.0008550504 0.1 -0.002388932 0.0007368879 0 -0.002388932 0.0007368879 0.1 -0.002422693 0.0006168935 0 -0.002422693 0.0006168935 0.1 -0.002450431 0.0004953654 0 -0.002450431 0.0004953654 0.1 -0.002472077 0.0003726057 0 -0.002472077 0.0003726057 0.1 -0.002487577 0.0002489196 0 -0.002487577 0.0002489196 0.1 -0.002496892 0.0001246147 0 -0.002496892 0.0001246147 0.1 -0.0025 -8.575622e-18 0 -0.0025 -8.575622e-18 0.1 -0.002496892 -0.0001246147 0 -0.002496892 -0.0001246147 0.1 -0.002487577 -0.0002489196 0 -0.002487577 -0.0002489196 0.1 -0.002472077 -0.0003726057 0 -0.002472077 -0.0003726057 0.1 -0.002450431 -0.0004953654 0 -0.002450431 -0.0004953654 0.1 -0.002422693 -0.0006168935 0 -0.002422693 -0.0006168935 0.1 -0.002388932 -0.0007368879 0 -0.002388932 -0.0007368879 0.1 -0.002349231 -0.0008550504 0 -0.002349231 -0.0008550504 0.1 -0.00230369 -0.000971087 0 -0.00230369 -0.000971087 0.1 -0.002252422 -0.001084709 0 -0.002252422 -0.001084709 0.1 -0.002195554 -0.001195635 0 -0.002195554 -0.001195635 0.1 -0.002133227 -0.001303588 0 -0.002133227 -0.001303588 0.1 -0.002065597 -0.0014083 0.1 -0.002065597 -0.0014083 0 -0.001992831 -0.001509511 0 -0.001992831 -0.001509511 0.1 -0.001915111 -0.001606969 0 -0.001915111 -0.001606969 0.1 -0.00183263 -0.001700432 0 -0.00183263 -0.001700432 0.1 -0.001745592 -0.001789667 0 -0.001745592 -0.001789667 0.1 -0.001654215 -0.001874453 0 -0.001654215 -0.001874453 0.1 -0.001558725 -0.001954579 0 -0.001558725 -0.001954579 0.1 -0.001459359 -0.002029845 0 -0.001459359 -0.002029845 0.1 -0.001356366 -0.002100065 0.1 -0.001356366 -0.002100065 0 -0.00125 -0.002165064 0 -0.00125 -0.002165064 0.1 -0.001140527 -0.002224679 0 -0.001140527 -0.002224679 0.1 -0.001028218 -0.002278765 0 -0.001028218 -0.002278765 0.1 -0.0009133525 -0.002327184 0.1 -0.0009133525 -0.002327184 0 -0.0007962166 -0.002369818 0 -0.0007962166 -0.002369818 0.1 -0.0006771012 -0.002406561 0 -0.0006771012 -0.002406561 0.1 -0.0005563023 -0.00243732 0 -0.0005563023 -0.00243732 0.1 -0.0004341204 -0.002462019 0 -0.0004341204 -0.002462019 0.1 -0.0003108593 -0.002480598 0 -0.0003108593 -0.002480598 0.1 -0.0001868252 -0.00249301 0 -0.0001868252 -0.00249301 0.1 -6.232673e-05 -0.002499223 0.1 -6.232673e-05 -0.002499223 0 6.232673e-05 -0.002499223 0 6.232673e-05 -0.002499223 0.1 0.0001868252 -0.00249301 0 0.0001868252 -0.00249301 0.1 0.0003108593 -0.002480598 0 0.0003108593 -0.002480598 0.1 0.0004341204 -0.002462019 0 0.0004341204 -0.002462019 0.1 0.0005563023 -0.00243732 0 0.0005563023 -0.00243732 0.1 0.0006771012 -0.002406561 0 0.0006771012 -0.002406561 0.1 0.0007962166 -0.002369818 0 0.0007962166 -0.002369818 0.1 0.0009133525 -0.002327184 0 0.0009133525 -0.002327184 0.1 0.001028218 -0.002278765 0 0.001028218 -0.002278765 0.1 0.001140527 -0.002224679 0 0.001140527 -0.002224679 0.1 0.00125 -0.002165064 0 0.00125 -0.002165064 0.1 0.001356366 -0.002100065 0 0.001356366 -0.002100065 0.1 0.001459359 -0.002029845 0 0.001459359 -0.002029845 0.1 0.001558725 -0.001954579 0 0.001558725 -0.001954579 0.1 0.001654215 -0.001874453 0.1 0.001654215 -0.001874453 0 0.001745592 -0.001789667 0 0.001745592 -0.001789667 0.1 0.00183263 -0.001700432 0.1 0.00183263 -0.001700432 0 0.001915111 -0.001606969 0 0.001915111 -0.001606969 0.1 0.001992831 -0.001509511 0.1 0.001992831 -0.001509511 0 0.002065597 -0.0014083 0 0.002065597 -0.0014083 0.1 0.002133227 -0.001303588 0 0.002133227 -0.001303588 0.1 0.002195554 -0.001195635 0 0.002195554 -0.001195635 0.1 0.002252422 -0.001084709 0 0.002252422 -0.001084709 0.1 0.00230369 -0.000971087 0 0.00230369 -0.000971087 0.1 0.002349231 -0.0008550504 0.1 0.002349231 -0.0008550504 0 0.002388932 -0.0007368879 0 0.002388932 -0.0007368879 0.1 0.002422693 -0.0006168935 0.1 0.002422693 -0.0006168935 0 0.002450431 -0.0004953654 0 0.002450431 -0.0004953654 0.1 0.002472077 -0.0003726057 0.1 0.002472077 -0.0003726057 0 0.002487577 -0.0002489196 0 0.002487577 -0.0002489196 0.1 0.002496892 -0.0001246147 0 0.002496892 -0.0001246147 0.1 3.79e-07 0 0 3.79e-07 0 0.1 2.320706e-23 3.79e-07 0.1 2.320706e-23 3.79e-07 0 -3.79e-07 4.641411e-23 0 -3.79e-07 4.641411e-23 0.1 -6.962117e-23 -3.79e-07 0 -6.962117e-23 -3.79e-07 0.1</float_array>
          <technique_common>
            <accessor count="260" source="#cubeverts-array0-array" stride="3">
              <param type="float" name="X"/>
              <param type="float" name="Y"/>
              <param type="float" name="Z"/>
            </accessor>
          </technique_common>
        </source>
        <source id="cubenormals-array0">
          <float_array count="1560" id="cubenormals-array0-array">0.9996892 0.02493141 -0 0.9996892 0.02493141 0 0.9972039 0.0747292 0 0.9972039 0.0747292 -0 0.9922392 0.1243434 0 0.9848075 0.1736495 0 0.9922392 0.1243434 -0 0.9848075 0.1736495 0 0.9749281 0.2225198 0 0.9749281 0.2225198 -0 0.9626241 0.2708409 0 0.9479272 0.3184869 0 0.9626241 0.2708409 -0 0.9308736 0.3653413 0 0.9479272 0.3184869 0 0.9308736 0.3653413 0 0.9115061 0.4112868 0 0.9115061 0.4112868 -0 0.8898723 0.4562098 0 0.8898723 0.4562098 -0 0.8660248 0.500001 -0 0.8660248 0.500001 0 0.8400258 0.5425465 -0 0.8400258 0.5425465 0 0.8119382 0.5837434 -0 0.8119382 0.5837434 0 0.7818314 0.6234898 -0 0.7818314 0.6234898 0 0.7497814 0.6616856 0 0.7497814 0.6616856 -0 0.7158667 0.6982369 0 0.7158667 0.6982369 -0 0.6801727 0.7330518 0 0.6801727 0.7330518 -0 0.6427881 0.766044 0 0.603804 0.7971328 0 0.6427881 0.766044 -0 0.56332 0.8262389 0 0.603804 0.7971328 0 0.56332 0.8262389 0 0.5214361 0.8532904 0 0.478253 0.8782221 0 0.5214361 0.8532904 -0 0.478253 0.8782221 0 0.4338848 0.9009684 0 0.4338848 0.9009684 -0 0.3884345 0.9214764 0 0.3884345 0.9214764 -0 0.3420202 0.9396926 0 0.3420202 0.9396926 -0 0.294755 0.9555729 0 0.2467568 0.9690775 0 0.294755 0.9555729 -0 0.1981468 0.9801724 0 0.2467568 0.9690775 0 0.1981468 0.9801724 0 0.1490414 0.988831 0 0.1490414 0.988831 -0 0.09956878 0.9950307 0 0.09956878 0.9950307 -0 0.0498456 0.9987569 0 0.0498456 0.9987569 -0 0 1 0 0 1 -0 -0.0498456 0.9987569 0 -0.0498456 0.9987569 0 -0.09956878 0.9950307 0 -0.1490414 0.988831 0 -0.09956878 0.9950307 0 -0.1490414 0.988831 0 -0.1981468 0.9801724 0 -0.1981468 0.9801724 0 -0.2467568 0.9690775 0 -0.2467568 0.9690775 0 -0.294755 0.9555729 0 -0.294755 0.9555729 0 -0.3420202 0.9396926 0 -0.3420202 0.9396926 0 -0.3884345 0.9214764 0 -0.3884345 0.9214764 0 -0.4338848 0.9009684 0 -0.4338848 0.9009684 0 -0.478253 0.8782221 0 -0.478253 0.8782221 0 -0.5214361 0.8532904 0 -0.5214361 0.8532904 0 -0.56332 0.8262389 0 -0.56332 0.8262389 0 -0.603804 0.7971328 0 -0.603804 0.7971328 0 -0.6427881 0.766044 0 -0.6427881 0.766044 0 -0.6801727 0.7330518 0 -0.6801727 0.7330518 0 -0.7158667 0.6982369 0 -0.7158667 0.6982369 0 -0.7497814 0.6616856 0 -0.7497814 0.6616856 0 -0.7818314 0.6234898 0 -0.7818314 0.6234898 0 -0.8119382 0.5837434 0 -0.8119382 0.5837434 0 -0.8400258 0.5425465 0 -0.8400258 0.5425465 0 -0.8660248 0.500001 0 -0.8660248 0.500001 0 -0.8898723 0.4562098 0 -0.9115061 0.4112868 0 -0.8898723 0.4562098 0 -0.9115061 0.4112868 0 -0.9308736 0.3653413 0 -0.9308736 0.3653413 0 -0.9479272 0.3184869 0 -0.9479272 0.3184869 0 -0.9626241 0.2708409 0 -0.9626241 0.2708409 0 -0.9749281 0.2225198 0 -0.9749281 0.2225198 0 -0.9848075 0.1736495 0 -0.9848075 0.1736495 0 -0.9922392 0.1243434 0 -0.9922392 0.1243434 0 -0.9972039 0.0747292 0 -0.9972039 0.0747292 0 -0.9996892 0.02493141 0 -0.9996892 0.02493141 0 -0.9996892 -0.02493141 0 -0.9996892 -0.02493141 0 -0.9972039 -0.0747292 0 -0.9972039 -0.0747292 0 -0.9922392 -0.1243434 0 -0.9922392 -0.1243434 0 -0.9848075 -0.1736495 0 -0.9848075 -0.1736495 0 -0.9749281 -0.2225198 0 -0.9749281 -0.2225198 0 -0.9626241 -0.2708409 0 -0.9626241 -0.2708409 0 -0.9479272 -0.3184869 0 -0.9479272 -0.3184869 0 -0.9308736 -0.3653413 0 -0.9308736 -0.3653413 0 -0.9115061 -0.4112868 0 -0.9115061 -0.4112868 0 -0.8898723 -0.4562098 0 -0.8898723 -0.4562098 0 -0.8660248 -0.500001 0 -0.8660248 -0.500001 0 -0.8400258 -0.5425465 -0 -0.8400258 -0.5425465 0 -0.8119382 -0.5837434 0 -0.8119382 -0.5837434 0 -0.7818314 -0.6234898 0 -0.7818314 -0.6234898 0 -0.7497814 -0.6616856 0 -0.7497814 -0.6616856 0 -0.7158667 -0.6982369 0 -0.7158667 -0.6982369 0 -0.6801727 -0.7330518 0 -0.6801727 -0.7330518 0 -0.6427881 -0.766044 0 -0.6427881 -0.766044 0 -0.603804 -0.7971328 0 -0.603804 -0.7971328 0 -0.56332 -0.8262389 -0 -0.56332 -0.8262389 0 -0.5214361 -0.8532904 0 -0.5214361 -0.8532904 0 -0.478253 -0.8782221 0 -0.478253 -0.8782221 0 -0.4338848 -0.9009684 0 -0.3884345 -0.9214764 -0 -0.4338848 -0.9009684 0 -0.3884345 -0.9214764 0 -0.3420202 -0.9396926 0 -0.3420202 -0.9396926 0 -0.294755 -0.9555729 0 -0.294755 -0.9555729 0 -0.2467568 -0.9690775 0 -0.2467568 -0.9690775 0 -0.1981468 -0.9801724 0 -0.1981468 -0.9801724 0 -0.1490414 -0.988831 0 -0.1490414 -0.988831 0 -0.09956878 -0.9950307 0 -0.09956878 -0.9950307 0 -0.0498456 -0.9987569 -0 -0.0498456 -0.9987569 0 0 -1 0 0 -1 0 0.0498456 -0.9987569 0 0.0498456 -0.9987569 0 0.09956878 -0.9950307 0 0.09956878 -0.9950307 0 0.1490414 -0.988831 0 0.1490414 -0.988831 0 0.1981468 -0.9801724 0 0.1981468 -0.9801724 0 0.2467568 -0.9690775 0 0.2467568 -0.9690775 0 0.294755 -0.9555729 0 0.294755 -0.9555729 0 0.3420202 -0.9396926 0 0.3420202 -0.9396926 0 0.3884345 -0.9214764 0 0.3884345 -0.9214764 0 0.4338848 -0.9009684 0 0.4338848 -0.9009684 0 0.478253 -0.8782221 0 0.478253 -0.8782221 0 0.5214361 -0.8532904 0 0.5214361 -0.8532904 0 0.56332 -0.8262389 0 0.56332 -0.8262389 0 0.603804 -0.7971328 0 0.6427881 -0.766044 0 0.603804 -0.7971328 0 0.6427881 -0.766044 0 0.6801727 -0.7330518 0 0.7158667 -0.6982369 0 0.6801727 -0.7330518 0 0.7158667 -0.6982369 0 0.7497814 -0.6616856 0 0.7497814 -0.6616856 0 0.7818314 -0.6234898 0 0.7818314 -0.6234898 0 0.8119382 -0.5837434 0 0.8119382 -0.5837434 0 0.8400258 -0.5425465 0 0.8400258 -0.5425465 0 0.8660248 -0.500001 0 0.8660248 -0.500001 0 0.8898723 -0.4562098 0 0.8898723 -0.4562098 0 0.9115061 -0.4112868 0 0.9308736 -0.3653413 0 0.9115061 -0.4112868 0 0.9308736 -0.3653413 0 0.9479272 -0.3184869 0 0.9626241 -0.2708409 0 0.9479272 -0.3184869 0 0.9626241 -0.2708409 0 0.9749281 -0.2225198 0 0.9848075 -0.1736495 0 0.9749281 -0.2225198 0 0.9848075 -0.1736495 0 0.9922392 -0.1243434 0 0.9922392 -0.1243434 0 0.9972039 -0.0747292 0 0.9972039 -0.0747292 0 0.9996892 -0.02493141 0 0.9996892 -0.02493141 0 -0.7071068 -0.7071068 0 -0.7071068 -0.7071068 0 0.7071068 -0.7071068 0 0.7071068 -0.7071068 0 0.7071068 0.7071068 -0 0.7071068 0.7071068 0 -0.7071068 0.7071068 0 -0.7071068 0.7071068 0 0 0 -1 0 0 -1 0 0 -1 0 0 -1 0 0 -1 0 0 -1 0 0 -1 0 0 -1 0 0 -1 0 0 -1 0 0 -1 0 0 -1 0 0 -1 0 0 -1 0 0 -1 0 0 -1 0 0 -1 0 0 -1 0 0 -1 0 0 -1 0 0 -1 0 0 -1 0 0 -1 0 0 -1 0 0 -1 0 0 -1 0 0 -1 0 0 -1 0 0 -1 0 0 -1 0 0 -1 0 -0 -1 0 -0 -1 0 -0 -1 0 -0 -1 0 -0 -1 0 -0 -1 0 -0 -1 0 -0 -1 0 -0 -1 0 -0 -1 0 -0 -1 0 -0 -1 0 -0 -1 0 -0 -1 0 -0 -1 0 0 -1 0 0 -1 0 0 -1 0 0 -1 0 0 -1 0 0 -1 0 0 -1 0 0 -1 0 0 -1 0 0 -1 0 0 -1 0 0 -1 0 0 -1 0 0 -1 0 0 -1 0 0 -1 0 0 -1 0 0 -1 0 0 -1 0 0 -1 0 0 -1 0 0 -1 0 0 -1 0 0 -1 0 0 -1 0 0 -1 0 0 -1 0 0 -1 0 0 -1 0 0 -1 0 0 -1 0 0 -1 0 0 -1 0 0 -1 0 0 -1 0 0 -1 0 0 -1 0 0 -1 0 0 -1 0 0 -1 0 0 -1 0 0 -1 0 0 -1 0 0 -1 0 0 -1 0 0 -1 0 0 -1 0 0 -1 0 0 -1 0 0 -1 0 0 -1 0 0 -1 0 0 -1 0 -0 -1 0 0 -1 0 -0 -1 0 0 -1 0 -0 -1 0 0 -1 0 -0 -1 0 0 -1 0 -0 -1 0 0 -1 0 -0 -1 0 0 -1 0 -0 -1 0 0 -1 0 -0 -1 0 0 -1 0 -0 -1 0 0 -1 0 -0 -1 0 0 -1 0 -0 -1 0 0 -1 0 -0 -1 0 0 -1 0 -0 -1 0 0 -1 0 -0 -1 0 0 -1 0 0 -1 0 0 -1 0 -0 -1 0 0 1 0 0 1 0 0 1 0 0 1 0 0 1 0 0 1 0 0 1 0 0 1 0 0 1 0 0 1 0 0 1 0 0 1 0 0 1 0 0 1 0 0 1 0 0 1 0 0 1 0 0 1 0 0 1 0 0 1 0 0 1 0 0 1 0 0 1 0 0 1 0 0 1 0 0 1 0 0 1 0 0 1 0 0 1 0 0 1 0 0 1 0 0 1 0 0 1 0 0 1 0 0 1 0 0 1 0 0 1 0 0 1 0 0 1 0 0 1 0 0 1 0 0 1 0 0 1 0 0 1 0 0 1 0 0 1 0 0 1 0 0 1 0 0 1 0 0 1 0 0 1 0 0 1 0 0 1 0 0 1 0 0 1 0 0 1 0 0 1 0 0 1 0 0 1 0 0 1 0 0 1 0 0 1 0 0 1 0 0 1 0 0 1 0 0 1 0 0 1 0 0 1 0 0 1 0 0 1 0 0 1 0 0 1 0 0 1 0 0 1 0 0 1 0 0 1 0 0 1 0 0 1 0 0 1 0 0 1 0 0 1 0 0 1 0 0 1 0 0 1 0 0 1 0 0 1 0 0 1 0 0 1 0 0 1 0 0 1 0 0 1 0 0 1 0 0 1 0 0 1 0 0 1 0 0 1 0 0 1 0 0 1 0 0 1 0 0 1 0 0 1 0 0 1 0 0 1 0 0 1 0 0 1 0 0 1 0 0 1 0 0 1 0 0 1 0 0 1 0 0 1 0 0 1 0 0 1 0 0 1 0 0 1 0 0 1 0 0 1 0 0 1 0 0 1 0 0 1 0 0 1 0 0 1 0 0 1 0 0 1 0 0 1 0 0 1 0 0 1 0 0 1 0 0 1 0 0 1</float_array>
          <technique_common>
            <accessor count="520" source="#cubenormals-array0-array" stride="3">
              <param type="float" name="X"/>
              <param type="float" name="Y"/>
              <param type="float" name="Z"/>
            </accessor>
          </technique_common>
        </source>
        <vertices id="cubeverts-array0-vertices">
          <input semantic="POSITION" source="#cubeverts-array0"/>
        </vertices>
        <triangles count="520" material="ref_Body">
          <input offset="0" semantic="VERTEX" source="#cubeverts-array0-vertices"/>
          <input offset="1" semantic="NORMAL" source="#cubenormals-array0"/>
          <p>0 0 1 0 2 0 2 1 1 1 3 1 3 2 4 2 5 2 1 3 4 3 3 3 5 4 6 4 7 4 7 5 6 5 8 5 4 6 6 6 5 6 6 7 9 7 8 7 8 8 10 8 11 8 9 9 10 9 8 9 11 10 12 10 13 10 13 11 12 11 14 11 10 12 12 12 11 12 14 13 15 13 16 13 12 14 15 14 14 14 15 15 17 15 16 15 16 16 18 16 19 16 17 17 18 17 16 17 19 18 20 18 21 18 18 19 20 19 19 19 20 20 22 20 21 20 21 21 22 21 23 21 22 22 24 22 23 22 23 23 24 23 25 23 24 24 26 24 25 24 25 25 26 25 27 25 26 26 28 26 27 26 27 27 28 27 29 27 29 28 30 28 31 28 28 29 30 29 29 29 31 30 32 30 33 30 30 31 32 31 31 31 33 32 34 32 35 32 32 33 34 33 33 33 35 34 36 34 37 34 37 35 36 35 38 35 34 36 36 36 35 36 38 37 39 37 40 37 36 38 39 38 38 38 39 39 41 39 40 39 40 40 42 40 43 40 43 41 42 41 44 41 41 42 42 42 40 42 42 43 45 43 44 43 44 44 46 44 47 44 45 45 46 45 44 45 47 46 48 46 49 46 46 47 48 47 47 47 49 48 50 48 51 48 48 49 50 49 49 49 51 50 52 50 53 50 53 51 52 51 54 51 50 52 52 52 51 52 54 53 55 53 56 53 52 54 55 54 54 54 55 55 57 55 56 55 56 56 58 56 59 56 57 57 58 57 56 57 59 58 60 58 61 58 58 59 60 59 59 59 61 60 62 60 63 60 60 61 62 61 61 61 63 62 64 62 65 62 62 63 64 63 63 63 65 64 66 64 67 64 64 65 66 65 65 65 67 66 68 66 69 66 69 67 68 67 70 67 66 68 68 68 67 68 68 69 71 69 70 69 71 70 72 70 70 70 70 71 72 71 73 71 73 72 72 72 74 72 72 73 75 73 74 73 74 74 75 74 76 74 75 75 77 75 76 75 77 76 78 76 76 76 76 77 78 77 79 77 78 78 80 78 79 78 79 79 80 79 81 79 80 80 82 80 81 80 81 81 82 81 83 81 82 82 84 82 83 82 83 83 84 83 85 83 84 84 86 84 85 84 85 85 86 85 87 85 86 86 88 86 87 86 87 87 88 87 89 87 88 88 90 88 89 88 89 89 90 89 91 89 90 90 92 90 91 90 91 91 92 91 93 91 92 92 94 92 93 92 93 93 94 93 95 93 95 94 94 94 96 94 94 95 97 95 96 95 96 96 98 96 99 96 97 97 98 97 96 97 99 98 98 98 100 98 98 99 101 99 100 99 100 100 102 100 103 100 101 101 102 101 100 101 103 102 104 102 105 102 102 103 104 103 103 103 105 104 106 104 107 104 104 105 106 105 105 105 107 106 108 106 109 106 109 107 108 107 110 107 106 108 108 108 107 108 108 109 111 109 110 109 110 110 112 110 113 110 111 111 112 111 110 111 113 112 114 112 115 112 112 113 114 113 113 113 115 114 116 114 117 114 114 115 116 115 115 115 117 116 118 116 119 116 116 117 118 117 117 117 119 118 120 118 121 118 118 119 120 119 119 119 121 120 122 120 123 120 120 121 122 121 121 121 122 122 124 122 123 122 123 123 124 123 125 123 124 124 126 124 125 124 125 125 126 125 127 125 126 126 128 126 127 126 127 127 128 127 129 127 128 128 130 128 129 128 129 129 130 129 131 129 130 130 132 130 131 130 131 131 132 131 133 131 132 132 134 132 133 132 133 133 134 133 135 133 134 134 136 134 135 134 135 135 136 135 137 135 136 136 138 136 137 136 137 137 138 137 139 137 138 138 140 138 139 138 139 139 140 139 141 139 140 140 142 140 141 140 141 141 142 141 143 141 142 142 144 142 143 142 143 143 144 143 145 143 144 144 146 144 145 144 145 145 146 145 147 145 146 146 148 146 147 146 147 147 148 147 149 147 149 148 148 148 150 148 148 149 151 149 150 149 151 150 152 150 150 150 150 151 152 151 153 151 152 152 154 152 153 152 153 153 154 153 155 153 154 154 156 154 155 154 155 155 156 155 157 155 156 156 158 156 157 156 157 157 158 157 159 157 158 158 160 158 159 158 159 159 160 159 161 159 160 160 162 160 161 160 161 161 162 161 163 161 162 162 164 162 163 162 163 163 164 163 165 163 165 164 164 164 166 164 164 165 167 165 166 165 166 166 168 166 169 166 167 167 168 167 166 167 169 168 170 168 171 168 168 169 170 169 169 169 171 170 172 170 173 170 173 171 172 171 174 171 170 172 172 172 171 172 172 173 175 173 174 173 175 174 176 174 174 174 174 175 176 175 177 175 176 176 178 176 177 176 177 177 178 177 179 177 178 178 180 178 179 178 179 179 180 179 181 179 180 180 182 180 181 180 181 181 182 181 183 181 182 182 184 182 183 182 183 183 184 183 185 183 184 184 186 184 185 184 185 185 186 185 187 185 187 186 186 186 188 186 186 187 189 187 188 187 189 188 190 188 188 188 188 189 190 189 191 189 190 190 192 190 191 190 191 191 192 191 193 191 192 192 194 192 193 192 193 193 194 193 195 193 194 194 196 194 195 194 195 195 196 195 197 195 196 196 198 196 197 196 197 197 198 197 199 197 199 198 200 198 201 198 198 199 200 199 199 199 201 200 202 200 203 200 200 201 202 201 201 201 203 202 204 202 205 202 202 203 204 203 203 203 205 204 206 204 207 204 204 205 206 205 205 205 207 206 208 206 209 206 206 207 208 207 207 207 209 208 210 208 211 208 208 209 210 209 209 209 211 210 212 210 213 210 210 211 212 211 211 211 213 212 214 212 215 212 212 213 214 213 213 213 215 214 216 214 217 214 217 215 216 215 218 215 214 216 216 216 215 216 216 217 219 217 218 217 218 218 220 218 221 218 221 219 220 219 222 219 219 220 220 220 218 220 220 221 223 221 222 221 223 222 224 222 222 222 222 223 224 223 225 223 225 224 224 224 226 224 224 225 227 225 226 225 227 226 228 226 226 226 226 227 228 227 229 227 228 228 230 228 229 228 229 229 230 229 231 229 231 230 232 230 233 230 230 231 232 231 231 231 233 232 234 232 235 232 232 233 234 233 233 233 235 234 236 234 237 234 237 235 236 235 238 235 234 236 236 236 235 236 236 237 239 237 238 237 238 238 240 238 241 238 241 239 240 239 242 239 239 240 240 240 238 240 240 241 243 241 242 241 242 242 244 242 245 242 245 243 244 243 246 243 243 244 244 244 242 244 244 245 247 245 246 245 246 246 248 246 249 246 247 247 248 247 246 247 249 248 250 248 251 248 248 249 250 249 249 249 251 250 0 250 2 250 250 251 0 251 251 251 252 252 253 252 254 252 255 253 252 253 254 253 256 254 254 254 257 254 256 255 255 255 254 255 258 256 257 256 259 256 258 257 256 257 257 257 252 258 259 258 253 258 252 259 258 259 259 259 200 260 258 260 202 260 202 261 258 261 204 261 204 262 258 262 206 262 206 263 258 263 208 263 208 264 258 264 210 264 210 265 258 265 212 265 212 266 258 266 214 266 214 267 258 267 216 267 216 268 258 268 219 268 219 269 258 269 220 269 158 270 258 270 160 270 160 271 258 271 162 271 162 272 258 272 164 272 164 273 258 273 167 273 167 274 258 274 168 274 168 275 258 275 170 275 170 276 258 276 172 276 172 277 258 277 175 277 175 278 258 278 176 278 176 279 258 279 178 279 178 280 258 280 180 280 180 281 258 281 182 281 182 282 258 282 184 282 184 283 258 283 186 283 186 284 258 284 189 284 189 285 258 285 190 285 190 286 258 286 192 286 192 287 258 287 194 287 194 288 258 288 196 288 196 289 258 289 198 289 198 290 258 290 200 290 97 291 256 291 98 291 98 292 256 292 101 292 101 293 256 293 102 293 102 294 256 294 104 294 104 295 256 295 106 295 106 296 256 296 108 296 108 297 256 297 111 297 111 298 256 298 112 298 112 299 256 299 114 299 114 300 256 300 116 300 116 301 256 301 118 301 118 302 256 302 120 302 120 303 256 303 122 303 122 304 256 304 124 304 124 305 256 305 126 305 126 306 256 306 128 306 128 307 256 307 130 307 130 308 256 308 132 308 132 309 256 309 134 309 134 310 256 310 136 310 136 311 256 311 138 311 138 312 256 312 140 312 140 313 256 313 142 313 142 314 256 314 144 314 144 315 256 315 146 315 146 316 256 316 148 316 148 317 256 317 151 317 158 318 256 318 258 318 151 319 256 319 152 319 152 320 256 320 154 320 154 321 256 321 156 321 156 322 256 322 158 322 258 323 252 323 220 323 256 324 94 324 255 324 97 325 94 325 256 325 252 326 223 326 220 326 94 327 92 327 255 327 252 328 224 328 223 328 92 329 90 329 255 329 252 330 227 330 224 330 90 331 88 331 255 331 252 332 228 332 227 332 88 333 86 333 255 333 252 334 230 334 228 334 86 335 84 335 255 335 252 336 232 336 230 336 84 337 82 337 255 337 252 338 234 338 232 338 82 339 80 339 255 339 252 340 236 340 234 340 80 341 78 341 255 341 252 342 239 342 236 342 78 343 77 343 255 343 252 344 240 344 239 344 77 345 75 345 255 345 252 346 243 346 240 346 75 347 72 347 255 347 252 348 244 348 243 348 72 349 71 349 255 349 252 350 247 350 244 350 71 351 68 351 255 351 252 352 248 352 247 352 68 353 66 353 255 353 252 354 250 354 248 354 66 355 64 355 255 355 252 356 0 356 250 356 64 357 62 357 255 357 252 358 1 358 0 358 62 359 60 359 255 359 252 360 4 360 1 360 60 361 58 361 255 361 252 362 6 362 4 362 58 363 57 363 255 363 252 364 9 364 6 364 57 365 55 365 255 365 252 366 10 366 9 366 55 367 52 367 255 367 252 368 12 368 10 368 52 369 50 369 255 369 252 370 15 370 12 370 50 371 48 371 255 371 252 372 17 372 15 372 48 373 46 373 255 373 252 374 18 374 17 374 46 375 45 375 255 375 252 376 20 376 18 376 45 377 42 377 255 377 252 378 22 378 20 378 42 379 41 379 255 379 252 380 24 380 22 380 41 381 39 381 255 381 252 382 26 382 24 382 39 383 36 383 255 383 252 384 28 384 26 384 36 385 34 385 255 385 252 386 30 386 28 386 255 387 32 387 252 387 252 388 32 388 30 388 34 389 32 389 255 389 259 390 201 390 203 390 259 391 203 391 205 391 259 392 205 392 207 392 259 393 207 393 209 393 259 394 209 394 211 394 259 395 211 395 213 395 259 396 213 396 215 396 259 397 215 397 217 397 259 398 217 398 218 398 259 399 218 399 221 399 259 400 159 400 161 400 259 401 161 401 163 401 259 402 163 402 165 402 259 403 165 403 166 403 259 404 166 404 169 404 259 405 169 405 171 405 259 406 171 406 173 406 259 407 173 407 174 407 259 408 174 408 177 408 259 409 177 409 179 409 259 410 179 410 181 410 259 411 181 411 183 411 259 412 183 412 185 412 259 413 185 413 187 413 259 414 187 414 188 414 259 415 188 415 191 415 259 416 191 416 193 416 259 417 193 417 195 417 259 418 195 418 197 418 259 419 197 419 199 419 259 420 199 420 201 420 257 421 96 421 99 421 257 422 99 422 100 422 257 423 100 423 103 423 257 424 103 424 105 424 257 425 105 425 107 425 257 426 107 426 109 426 257 427 109 427 110 427 257 428 110 428 113 428 257 429 113 429 115 429 257 430 115 430 117 430 257 431 117 431 119 431 257 432 119 432 121 432 257 433 121 433 123 433 257 434 123 434 125 434 257 435 125 435 127 435 257 436 127 436 129 436 257 437 129 437 131 437 257 438 131 438 133 438 257 439 133 439 135 439 257 440 135 440 137 440 257 441 137 441 139 441 257 442 139 442 141 442 257 443 141 443 143 443 257 444 143 444 145 444 257 445 145 445 147 445 257 446 147 446 149 446 257 447 149 447 150 447 257 448 159 448 259 448 257 449 150 449 153 449 257 450 153 450 155 450 257 451 155 451 157 451 257 452 157 452 159 452 253 453 259 453 221 453 95 454 257 454 254 454 95 455 96 455 257 455 222 456 253 456 221 456 93 457 95 457 254 457 225 458 253 458 222 458 91 459 93 459 254 459 226 460 253 460 225 460 89 461 91 461 254 461 229 462 253 462 226 462 87 463 89 463 254 463 231 464 253 464 229 464 85 465 87 465 254 465 233 466 253 466 231 466 83 467 85 467 254 467 235 468 253 468 233 468 81 469 83 469 254 469 237 470 253 470 235 470 79 471 81 471 254 471 238 472 253 472 237 472 76 473 79 473 254 473 241 474 253 474 238 474 74 475 76 475 254 475 242 476 253 476 241 476 73 477 74 477 254 477 245 478 253 478 242 478 70 479 73 479 254 479 246 480 253 480 245 480 69 481 70 481 254 481 249 482 253 482 246 482 67 483 69 483 254 483 251 484 253 484 249 484 65 485 67 485 254 485 2 486 253 486 251 486 63 487 65 487 254 487 3 488 253 488 2 488 61 489 63 489 254 489 5 490 253 490 3 490 59 491 61 491 254 491 7 492 253 492 5 492 56 493 59 493 254 493 8 494 253 494 7 494 54 495 56 495 254 495 11 496 253 496 8 496 53 497 54 497 254 497 13 498 253 498 11 498 51 499 53 499 254 499 14 500 253 500 13 500 49 501 51 501 254 501 16 502 253 502 14 502 47 503 49 503 254 503 19 504 253 504 16 504 44 505 47 505 254 505 21 506 253 506 19 506 43 507 44 507 254 507 23 508 253 508 21 508 40 509 43 509 254 509 25 510 253 510 23 510 38 511 40 511 254 511 27 512 253 512 25 512 37 513 38 513 254 513 29 514 253 514 27 514 35 515 37 515 254 515 31 516 253 516 29 516 33 517 254 517 253 517 33 518 253 518 31 518 33 519 35 519 254 519</p>
        </triangles>
      </mesh>
    </geometry>
  </library_geometries>
  <library_materials>
    <material id="mat_Body" name="Body">
      <instance_effect url="#effect_Body"/>
    </material>
  </library_materials>
  <library_visual_scenes>
    <visual_scene id="myscene">
      <node id="node0" name="node0">
        <instance_geometry url="#geometry0">
          <bind_material>
            <technique_common>
              <instance_material symbol="ref_Body" target="#mat_Body"/>
            </technique_common>
          </bind_material>
        </instance_geometry>
      </node>
    </visual_scene>
  </library_visual_scenes>
  <scene>
    <instance_visual_scene url="#myscene"/>
  </scene>
</COLLADA>
